# File produced by Open Asset Import Library (http://www.assimp.sf.net)
# (assimp v3.1.243586452)

mtllib Scanner.mtl

# vertex positions
v -1.216640 0.022582 1.413871
v -1.204340 0.016728 1.456492
v -1.169196 0.022582 1.471409
v -1.169196 0.030110 1.413871
v -1.216640 -0.022582 1.413871
v -1.216640 -0.022582 1.022044
v -1.169196 -0.030110 1.022044
v -1.169196 -0.030110 1.413871
v 0.845268 0.030110 1.413871
v 0.845268 0.022582 1.471409
v 1.169196 0.022582 1.471409
v 1.169196 0.030110 1.413871
v 1.169196 0.000000 -1.490588
v 1.169196 -0.022582 -1.471409
v 0.845268 -0.022582 -1.471409
v 0.845268 0.000000 -1.490588
v 0.845268 0.022582 -1.471409
v 1.169196 0.022582 -1.471409
v 1.169196 -0.022582 1.471409
v 0.845268 -0.022582 1.471409
v 0.845268 -0.030110 1.413871
v 1.169196 -0.030110 1.413871
v 1.169196 0.000000 1.490588
v 0.845268 0.000000 1.490588
v -0.845268 0.030110 1.413871
v -0.845268 0.022582 1.471409
v -0.000000 0.022582 1.471409
v -0.000000 0.030110 1.413871
v -0.000000 0.000000 -1.490588
v -0.000000 -0.022582 -1.471409
v -0.845268 -0.022582 -1.471409
v -0.845268 0.000000 -1.490588
v -0.845268 0.022582 -1.471409
v -0.000000 0.022582 -1.471409
v -0.000000 -0.022582 1.471409
v -0.845268 -0.022582 1.471409
v -0.845268 -0.030110 1.413871
v -0.000000 -0.030110 1.413871
v -0.000000 0.000000 1.490588
v -0.845268 0.000000 1.490588
v -0.845268 0.030110 -1.413871
v -1.105938 0.030110 -1.337153
v -0.000000 0.030110 -1.337153
v -0.000000 0.030110 -1.413871
v -1.216640 0.022582 -1.413871
v -1.216640 0.022582 -1.022044
v -1.169196 0.030110 -1.022044
v -1.169196 0.030110 -1.413871
v -1.216640 -0.022582 -1.413871
v -1.204340 -0.016728 -1.456492
v -1.169196 -0.022582 -1.471409
v -1.169196 -0.030110 -1.413871
v 0.845268 -0.030110 -1.413871
v 1.105938 -0.030110 -1.337153
v -0.000000 -0.030110 -1.337153
v -0.000000 -0.030110 -1.413871
v 1.216640 -0.022582 -1.413871
v 1.216640 -0.022582 -1.022044
v 1.169196 -0.030110 -1.022044
v 1.169196 -0.030110 -1.413871
v 1.232454 0.000000 -1.413871
v 1.216640 0.022582 -1.413871
v 1.216640 0.022582 -1.022044
v 1.232454 0.000000 -1.022044
v 0.845268 0.030110 -1.413871
v 1.105938 0.030110 -1.337153
v 1.169196 0.030110 -1.022044
v 1.169196 0.030110 -1.413871
v -1.105938 0.030110 1.337153
v -0.000000 0.030110 1.337153
v 1.105938 0.030110 1.337153
v 1.105938 0.030110 0.000000
v -1.105938 0.030110 0.000000
v -1.216640 0.022582 0.000000
v -1.216640 0.022582 1.022044
v -1.169196 0.030110 1.022044
v -1.169196 0.030110 0.000000
v -1.216640 -0.022582 0.000000
v -1.216640 -0.022582 -1.022044
v -1.169196 -0.030110 -1.022044
v -1.169196 -0.030110 0.000000
v 1.105938 -0.030110 1.337153
v -0.000000 -0.030110 1.337153
v -1.105938 -0.030110 1.337153
v -1.105938 -0.030110 0.000000
v -1.105938 -0.030110 -1.337153
v 1.105938 -0.030110 0.000000
v 1.216640 -0.022582 0.000000
v 1.216640 -0.022582 1.022044
v 1.169196 -0.030110 1.022044
v 1.169196 -0.030110 0.000000
v 1.232454 0.000000 0.000000
v 1.216640 0.022582 0.000000
v 1.216640 0.022582 1.022044
v 1.232454 0.000000 1.022044
v 1.169196 0.030110 1.022044
v 1.169196 0.030110 0.000000
v -1.169196 0.000000 1.490588
v -1.169196 -0.022582 1.471409
v -1.216640 0.000000 1.471409
v -1.204340 -0.016728 1.456492
v -1.169196 0.000000 -1.490588
v -1.169196 0.022582 -1.471409
v -1.216640 0.000000 -1.471409
v -1.204340 0.016728 -1.456492
v 1.232454 0.000000 1.413871
v 1.216640 -0.022582 1.413871
v 1.216640 0.022582 1.413871
v 1.204340 0.016728 1.456492
v 1.216640 0.000000 1.471409
v 1.204340 -0.016728 1.456492
v -1.232454 0.000000 1.413871
v -1.232454 0.000000 1.022044
v 1.204340 0.016728 -1.456492
v 1.216640 0.000000 -1.471409
v 1.204340 -0.016728 -1.456492
v -1.232454 0.000000 -1.413871
v -1.232454 0.000000 -1.022044
v -0.845268 -0.030110 -1.413871
v -1.232454 0.000000 0.000000

# UV coordinates
vt 0.286666 0.058482
vt 0.286666 0.046717
vt 0.295540 0.045291
vt 0.295540 0.058482
vt 0.286666 0.988445
vt 0.286666 0.974867
vt 0.295540 0.974867
vt 0.295540 0.988445
vt 0.699650 0.058482
vt 0.699650 0.045291
vt 0.709494 0.045291
vt 0.709494 0.058482
vt 0.709494 0.532404
vt 0.709494 0.524433
vt 0.699650 0.524433
vt 0.699650 0.532404
vt 0.699650 0.519349
vt 0.709494 0.519349
vt 0.709494 1.000000
vt 0.699650 1.000000
vt 0.699650 0.988445
vt 0.709494 0.988445
vt 0.709494 0.038162
vt 0.699650 0.038162
vt 0.699650 0.029606
vt 0.709494 0.029606
vt 0.308236 0.058482
vt 0.308236 0.045291
vt 0.500000 0.045291
vt 0.500000 0.058482
vt 0.500000 0.532404
vt 0.500000 0.524433
vt 0.308236 0.524433
vt 0.308236 0.532404
vt 0.308236 0.519349
vt 0.500000 0.519349
vt 0.500000 1.000000
vt 0.308236 1.000000
vt 0.308236 0.988445
vt 0.500000 0.988445
vt 0.500000 0.038162
vt 0.308236 0.038162
vt 0.308236 0.029606
vt 0.500000 0.029606
vt 0.308236 0.507993
vt 0.308088 0.498233
vt 0.500000 0.497989
vt 0.500000 0.507993
vt 0.286666 0.507993
vt 0.286666 0.497989
vt 0.295540 0.497989
vt 0.295540 0.507993
vt 0.286666 0.533871
vt 0.286666 0.527044
vt 0.295540 0.524433
vt 0.295540 0.533871
vt 0.699650 0.533871
vt 0.700743 0.543417
vt 0.500000 0.543661
vt 0.500000 0.533871
vt 0.719338 0.533871
vt 0.719338 0.543661
vt 0.709494 0.543661
vt 0.709494 0.533871
vt 0.760642 0.038162
vt 0.760642 0.046717
vt 0.752220 0.046717
vt 0.752220 0.038162
vt 0.752220 0.029606
vt 0.760642 0.029606
vt 0.699650 0.507993
vt 0.700743 0.498233
vt 0.709494 0.497989
vt 0.709494 0.507993
vt 0.308088 0.072519
vt 0.500000 0.072764
vt 0.700743 0.072519
vt 0.699650 0.375000
vt 0.308236 0.375000
vt 0.286666 0.375000
vt 0.286666 0.072764
vt 0.295540 0.072764
vt 0.295540 0.375000
vt 0.286666 0.875000
vt 0.286666 0.543661
vt 0.295540 0.543661
vt 0.295540 0.875000
vt 0.700743 0.976376
vt 0.500000 0.974867
vt 0.308088 0.976376
vt 0.308236 0.875000
vt 0.308088 0.543417
vt 0.699650 0.875000
vt 0.719338 0.875000
vt 0.719338 0.974867
vt 0.709494 0.974867
vt 0.709494 0.875000
vt 0.743797 0.038162
vt 0.743797 0.046717
vt 0.735375 0.046717
vt 0.735375 0.038162
vt 0.735375 0.029606
vt 0.743797 0.029606
vt 0.709494 0.072764
vt 0.709494 0.375000
vt 0.295540 0.038162
vt 0.295540 0.029606
vt 0.286666 0.038162
vt 0.286666 0.029606
vt 0.295540 0.532404
vt 0.295540 0.519349
vt 0.286666 0.532404
vt 0.286666 0.516738
vt 0.295540 1.000000
vt 0.286666 1.000000
vt 0.726953 0.038162
vt 0.726953 0.029606
vt 0.726953 0.046717
vt 0.719338 0.046717
vt 0.719338 0.038162
vt 0.719338 0.029606
vt 0.285699 0.038162
vt 0.285699 0.029606
vt 0.285699 0.046717
vt 0.278166 0.046717
vt 0.278166 0.038162
vt 0.278166 0.029606
vt 0.719338 0.058482
vt 0.719338 0.072764
vt 0.719338 0.516738
vt 0.719338 0.532404
vt 0.719338 0.527044
vt 0.719338 0.988445
vt 0.719338 1.000000
vt 0.255566 0.038162
vt 0.255566 0.029606
vt 0.263099 0.029606
vt 0.263099 0.038162
vt 0.263099 0.046717
vt 0.255566 0.046717
vt 0.248033 0.046717
vt 0.248033 0.038162
vt 0.248033 0.029606
vt 0.308236 0.533871
vt 0.769064 0.029606
vt 0.769064 0.038162
vt 0.769064 0.046717
vt 0.719338 0.497989
vt 0.719338 0.507993
vt 0.270633 0.038162
vt 0.270633 0.029606
vt 0.270633 0.046717
vt 0.719338 0.375000

# vertex normals
vn -0.749015 0.661871 0.030067
vn -0.686427 0.482975 0.543648
vn -0.040698 0.726883 0.685554
vn -0.051871 0.997733 0.042869
vn -0.749015 -0.661871 0.030067
vn -0.743151 -0.669124 0.000000
vn -0.050607 -0.998719 0.000000
vn -0.051871 -0.997733 0.042869
vn 0.000000 0.999105 0.042305
vn -0.000000 0.737482 0.675366
vn 0.040698 0.726883 0.685554
vn 0.051871 0.997733 0.042869
vn 0.047425 -0.000003 -0.998875
vn 0.040698 -0.726883 -0.685554
vn -0.000000 -0.737482 -0.675366
vn 0.000000 -0.000003 -1.000000
vn 0.000000 0.737482 -0.675367
vn 0.040698 0.726882 -0.685555
vn 0.040698 -0.726882 0.685555
vn 0.000000 -0.737482 0.675367
vn 0.000000 -0.999105 0.042305
vn 0.051871 -0.997733 0.042869
vn 0.047425 0.000003 0.998875
vn 0.000000 0.000003 1.000000
vn 0.000000 0.999105 0.042305
vn 0.000000 0.737482 0.675366
vn 0.000000 0.737483 0.675366
vn 0.000000 0.998675 0.051459
vn 0.000000 -0.000003 -1.000000
vn 0.000000 -0.737483 -0.675366
vn -0.000000 -0.737483 -0.675366
vn 0.000000 -0.000003 -1.000000
vn 0.000000 0.737482 -0.675367
vn 0.000000 -0.737482 0.675367
vn 0.000000 -0.737482 0.675367
vn 0.000000 -0.998675 0.051459
vn 0.000000 0.000003 1.000000
vn 0.000000 0.000003 1.000000
vn 0.000000 0.999105 -0.042305
vn 0.000000 1.000000 0.000000
vn 0.000000 1.000000 0.000000
vn 0.000000 0.998675 -0.051459
vn -0.749015 0.661871 -0.030067
vn -0.743150 0.669125 0.000000
vn -0.050607 0.998719 0.000000
vn -0.051871 0.997733 -0.042869
vn -0.749015 -0.661870 -0.030067
vn -0.686427 -0.482975 -0.543648
vn -0.040698 -0.726884 -0.685553
vn -0.051871 -0.997733 -0.042869
vn 0.000000 -0.999105 -0.042305
vn 0.000000 -1.000000 0.000000
vn 0.000000 -1.000000 0.000000
vn 0.000000 -0.998675 -0.051459
vn 0.749014 -0.661872 -0.030067
vn 0.743149 -0.669126 0.000000
vn 0.050607 -0.998719 0.000000
vn 0.051871 -0.997733 -0.042869
vn 0.999477 0.000000 -0.032340
vn 0.749014 0.661872 -0.030067
vn 0.743149 0.669126 0.000000
vn 1.000000 0.000000 0.000000
vn 0.000000 0.999105 -0.042305
vn 0.050607 0.998719 0.000000
vn 0.051871 0.997733 -0.042869
vn 0.000000 1.000000 -0.000000
vn 0.000000 1.000000 -0.000000
vn 0.000000 1.000000 0.000000
vn -0.743150 0.669125 0.000000
vn -0.743151 0.669124 0.000000
vn -0.050607 0.998719 0.000000
vn -0.062371 0.998053 0.000000
vn -0.743150 -0.669125 0.000000
vn -0.743150 -0.669125 0.000000
vn -0.062371 -0.998053 0.000000
vn 0.000000 -1.000000 -0.000000
vn 0.000000 -1.000000 -0.000000
vn 0.000000 -1.000000 0.000000
vn 0.743149 -0.669125 0.000000
vn 0.743150 -0.669125 0.000000
vn 0.062371 -0.998053 0.000000
vn 1.000000 0.000000 0.000000
vn 0.743149 0.669125 0.000000
vn 0.743150 0.669125 0.000000
vn 0.050607 0.998719 0.000000
vn 0.062371 0.998053 0.000000
vn -0.047426 0.000003 0.998875
vn -0.040698 -0.726882 0.685555
vn -0.771543 0.000002 0.636178
vn -0.686428 -0.482973 0.543648
vn -0.047426 -0.000003 -0.998875
vn -0.040698 0.726882 -0.685555
vn -0.771543 -0.000002 -0.636178
vn -0.686428 0.482973 -0.543648
vn 0.999477 0.000000 0.032340
vn 0.749014 -0.661872 0.030067
vn 0.749014 0.661872 0.030067
vn 0.686427 0.482975 0.543648
vn 0.771542 0.000002 0.636178
vn 0.686428 -0.482974 0.543648
vn -0.999477 0.000000 0.032340
vn -1.000000 0.000000 0.000000
vn 0.686427 0.482974 -0.543648
vn 0.771542 -0.000001 -0.636179
vn 0.686427 -0.482975 -0.543648
vn -0.999477 -0.000000 -0.032340
vn -0.000000 -0.999105 -0.042305
vn -1.000000 0.000000 0.000000

# Mesh
g pCube1
usemtl lambert1
f 4/4/4 1/1/1 2/2/2
f 2/2/2 3/3/3 4/4/4
f 8/8/8 5/5/5 6/6/6
f 6/6/6 7/7/7 8/8/8
f 12/12/12 9/9/9 10/10/10
f 10/10/10 11/11/11 12/12/12
f 18/18/18 13/13/13 14/14/14
f 18/18/18 14/14/14 15/15/15
f 18/18/18 15/15/15 16/16/16
f 16/16/16 17/17/17 18/18/18
f 22/22/22 19/19/19 20/20/20
f 20/20/20 21/21/21 22/22/22
f 19/26/19 23/23/23 11/11/11
f 19/26/19 11/11/11 10/10/10
f 19/26/19 10/10/10 24/24/24
f 24/24/24 20/25/20 19/26/19
f 28/30/28 25/27/25 26/28/26
f 26/28/26 27/29/27 28/30/28
f 34/36/33 29/31/29 30/32/30
f 34/36/33 30/32/30 31/33/31
f 34/36/33 31/33/31 32/34/32
f 32/34/32 33/35/17 34/36/33
f 38/40/36 35/37/34 36/38/35
f 36/38/35 37/39/21 38/40/36
f 35/44/34 39/41/37 27/29/27
f 35/44/34 27/29/27 26/28/26
f 35/44/34 26/28/26 40/42/38
f 40/42/38 36/43/35 35/44/34
f 44/48/42 41/45/39 42/46/40
f 42/46/40 43/47/41 44/48/42
f 48/52/46 45/49/43 46/50/44
f 46/50/44 47/51/45 48/52/46
f 52/56/50 49/53/47 50/54/48
f 50/54/48 51/55/49 52/56/50
f 56/60/54 53/57/51 54/58/52
f 54/58/52 55/59/53 56/60/54
f 60/64/58 57/61/55 58/62/56
f 58/62/56 59/63/57 60/64/58
f 57/70/55 61/65/59 62/66/60
f 57/70/55 62/66/60 63/67/61
f 57/70/55 63/67/61 64/68/62
f 64/68/62 58/69/56 57/70/55
f 68/74/65 65/71/63 66/72/40
f 66/72/40 67/73/64 68/74/65
f 73/79/68 69/75/66 70/76/67
f 73/79/68 70/76/67 71/77/66
f 73/79/68 71/77/66 72/78/68
f 73/79/68 72/78/68 66/72/40
f 73/79/68 66/72/40 43/47/41
f 43/47/41 42/46/40 73/79/68
f 77/83/72 74/80/69 75/81/70
f 75/81/70 76/82/71 77/83/72
f 81/87/75 78/84/73 79/85/74
f 79/85/74 80/86/7 81/87/75
f 87/93/78 82/88/76 83/89/77
f 87/93/78 83/89/77 84/90/76
f 87/93/78 84/90/76 85/91/78
f 87/93/78 85/91/78 86/92/52
f 87/93/78 86/92/52 55/59/53
f 55/59/53 54/58/52 87/93/78
f 91/97/81 88/94/79 89/95/80
f 89/95/80 90/96/57 91/97/81
f 88/103/79 92/98/82 93/99/83
f 88/103/79 93/99/83 94/100/84
f 88/103/79 94/100/84 95/101/62
f 95/101/62 89/102/80 88/103/79
f 97/105/86 72/78/68 71/77/66
f 71/77/66 96/104/85 97/105/86
f 3/3/3 98/106/87 99/107/88
f 3/3/3 99/107/88 36/43/35
f 3/3/3 36/43/35 40/42/38
f 40/42/38 26/28/26 3/3/3
f 99/107/88 98/106/87 3/3/3
f 99/107/88 3/3/3 2/2/2
f 99/107/88 2/2/2 100/108/89
f 100/108/89 101/109/90 99/107/88
f 4/4/4 3/3/3 26/28/26
f 26/28/26 25/27/25 4/4/4
f 4/4/4 25/27/25 69/75/66
f 69/75/66 76/82/71 4/4/4
f 4/4/4 76/82/71 75/81/70
f 75/81/70 1/1/1 4/4/4
f 51/55/49 102/110/91 103/111/92
f 51/55/49 103/111/92 33/35/17
f 51/55/49 33/35/17 32/34/32
f 32/34/32 31/33/31 51/55/49
f 103/111/92 102/110/91 51/55/49
f 103/111/92 51/55/49 50/54/48
f 103/111/92 50/54/48 104/112/93
f 104/112/93 105/113/94 103/111/92
f 8/8/8 7/7/7 84/90/76
f 84/90/76 37/39/21 8/8/8
f 8/8/8 37/39/21 36/38/35
f 36/38/35 99/114/88 8/8/8
f 8/8/8 99/114/88 101/115/90
f 101/115/90 5/5/5 8/8/8
f 108/118/97 106/116/95 107/117/96
f 108/118/97 107/117/96 89/102/80
f 108/118/97 89/102/80 95/101/62
f 95/101/62 94/100/84 108/118/97
f 107/117/96 106/116/95 108/118/97
f 107/117/96 108/118/97 109/119/98
f 107/117/96 109/119/98 110/120/99
f 110/120/99 111/121/100 107/117/96
f 1/124/1 112/122/101 5/123/5
f 1/124/1 5/123/5 101/109/90
f 1/124/1 101/109/90 100/108/89
f 100/108/89 2/2/2 1/124/1
f 5/123/5 112/122/101 1/124/1
f 5/123/5 1/124/1 75/125/70
f 5/123/5 75/125/70 113/126/102
f 113/126/102 6/127/6 5/123/5
f 12/12/12 11/11/11 109/119/98
f 109/119/98 108/128/97 12/12/12
f 12/12/12 108/128/97 94/129/84
f 94/129/84 96/104/85 12/12/12
f 12/12/12 96/104/85 71/77/66
f 71/77/66 9/9/9 12/12/12
f 14/14/14 13/13/13 18/18/18
f 14/14/14 18/18/18 114/130/103
f 14/14/14 114/130/103 115/131/104
f 115/131/104 116/132/105 14/14/14
f 22/22/22 21/21/21 82/88/76
f 82/88/76 90/96/57 22/22/22
f 22/22/22 90/96/57 89/95/80
f 89/95/80 107/133/96 22/22/22
f 22/22/22 107/133/96 111/134/100
f 111/134/100 19/19/19 22/22/22
f 11/11/11 23/23/23 19/26/19
f 11/11/11 19/26/19 111/121/100
f 11/11/11 111/121/100 110/120/99
f 110/120/99 109/119/98 11/11/11
f 28/30/28 27/29/27 10/10/10
f 10/10/10 9/9/9 28/30/28
f 28/30/28 9/9/9 71/77/66
f 71/77/66 70/76/67 28/30/28
f 28/30/28 70/76/67 69/75/66
f 69/75/66 25/27/25 28/30/28
f 30/32/30 29/31/29 34/36/33
f 30/32/30 34/36/33 17/17/17
f 30/32/30 17/17/17 16/16/16
f 16/16/16 15/15/15 30/32/30
f 38/40/36 37/39/21 84/90/76
f 84/90/76 83/89/77 38/40/36
f 38/40/36 83/89/77 82/88/76
f 82/88/76 21/21/21 38/40/36
f 38/40/36 21/21/21 20/20/20
f 20/20/20 35/37/34 38/40/36
f 27/29/27 39/41/37 35/44/34
f 27/29/27 35/44/34 20/25/20
f 27/29/27 20/25/20 24/24/24
f 24/24/24 10/10/10 27/29/27
f 44/48/42 43/47/41 66/72/40
f 66/72/40 65/71/63 44/48/42
f 44/48/42 65/71/63 17/17/17
f 17/17/17 34/36/33 44/48/42
f 44/48/42 34/36/33 33/35/17
f 33/35/17 41/45/39 44/48/42
f 48/52/46 47/51/45 42/46/40
f 42/46/40 41/45/39 48/52/46
f 48/52/46 41/45/39 33/35/17
f 33/35/17 103/111/92 48/52/46
f 48/52/46 103/111/92 105/113/94
f 105/113/94 45/49/43 48/52/46
f 45/140/43 117/135/106 49/136/47
f 45/140/43 49/136/47 79/137/74
f 45/140/43 79/137/74 118/138/102
f 118/138/102 46/139/44 45/140/43
f 117/135/106 45/140/43 105/141/94
f 117/135/106 105/141/94 104/142/93
f 117/135/106 104/142/93 50/143/48
f 117/135/106 50/143/48 49/136/47
f 52/56/50 51/55/49 31/33/31
f 31/33/31 119/144/107 52/56/50
f 52/56/50 119/144/107 86/92/52
f 86/92/52 80/86/7 52/56/50
f 52/56/50 80/86/7 79/85/74
f 79/85/74 49/53/47 52/56/50
f 56/60/54 55/59/53 86/92/52
f 86/92/52 119/144/107 56/60/54
f 56/60/54 119/144/107 31/33/31
f 31/33/31 30/32/30 56/60/54
f 56/60/54 30/32/30 15/15/15
f 15/15/15 53/57/51 56/60/54
f 60/64/58 59/63/57 54/58/52
f 54/58/52 53/57/51 60/64/58
f 60/64/58 53/57/51 15/15/15
f 15/15/15 14/14/14 60/64/58
f 60/64/58 14/14/14 116/132/105
f 116/132/105 57/61/55 60/64/58
f 62/66/60 61/65/59 57/70/55
f 62/66/60 57/70/55 116/145/105
f 62/66/60 116/145/105 115/146/104
f 115/146/104 114/147/103 62/66/60
f 68/74/65 67/73/64 63/148/61
f 63/148/61 62/149/60 68/74/65
f 68/74/65 62/149/60 114/130/103
f 114/130/103 18/18/18 68/74/65
f 68/74/65 18/18/18 17/17/17
f 17/17/17 65/71/63 68/74/65
f 77/83/72 76/82/71 69/75/66
f 69/75/66 73/79/68 77/83/72
f 77/83/72 73/79/68 42/46/40
f 42/46/40 47/51/45 77/83/72
f 77/83/72 47/51/45 46/50/44
f 46/50/44 74/80/69 77/83/72
f 74/152/69 120/150/108 78/151/73
f 74/152/69 78/151/73 6/127/6
f 74/152/69 6/127/6 113/126/102
f 113/126/102 75/125/70 74/152/69
f 78/151/73 120/150/108 74/152/69
f 78/151/73 74/152/69 46/139/44
f 78/151/73 46/139/44 118/138/102
f 118/138/102 79/137/74 78/151/73
f 81/87/75 80/86/7 86/92/52
f 86/92/52 85/91/78 81/87/75
f 81/87/75 85/91/78 84/90/76
f 84/90/76 7/7/7 81/87/75
f 81/87/75 7/7/7 6/6/6
f 6/6/6 78/84/73 81/87/75
f 91/97/81 90/96/57 82/88/76
f 82/88/76 87/93/78 91/97/81
f 91/97/81 87/93/78 54/58/52
f 54/58/52 59/63/57 91/97/81
f 91/97/81 59/63/57 58/62/56
f 58/62/56 88/94/79 91/97/81
f 93/99/83 92/98/82 88/103/79
f 93/99/83 88/103/79 58/69/56
f 93/99/83 58/69/56 64/68/62
f 64/68/62 63/67/61 93/99/83
f 97/105/86 96/104/85 94/129/84
f 94/129/84 93/153/83 97/105/86
f 97/105/86 93/153/83 63/148/61
f 63/148/61 67/73/64 97/105/86
f 97/105/86 67/73/64 66/72/40
f 66/72/40 72/78/68 97/105/86
